<svg xmlns="http://www.w3.org/2000/svg" xmlns:xlink="http://www.w3.org/1999/xlink" width="500" zoomAndPan="magnify" viewBox="0 0 375 374.999991" height="500" preserveAspectRatio="xMidYMid meet" version="1.0"><defs><clipPath id="ba2dfc581c"><path d="M 16.40625 4 L 358.40625 4 L 358.40625 275 L 16.40625 275 Z M 16.40625 4 " clip-rule="nonzero"/></clipPath></defs><path fill="#ffffff" d="M 101.488281 370.257812 C 100.125 370.257812 98.757812 369.917969 97.507812 369.246094 L 74.835938 357.324219 L 52.179688 369.246094 C 49.289062 370.789062 45.804688 370.53125 43.171875 368.617188 C 40.539062 366.707031 39.222656 363.445312 39.769531 360.25 L 44.085938 334.992188 L 25.75 317.097656 C 23.421875 314.832031 22.589844 311.441406 23.582031 308.34375 C 24.578125 305.242188 27.261719 302.976562 30.488281 302.511719 L 55.839844 298.832031 L 67.160156 275.859375 C 70.050781 270.027344 79.605469 270.027344 82.492188 275.859375 L 93.847656 298.832031 L 119.167969 302.496094 C 122.394531 302.960938 125.058594 305.226562 126.070312 308.324219 C 127.082031 311.425781 126.230469 314.816406 123.902344 317.082031 L 105.566406 334.976562 L 109.902344 360.230469 C 110.449219 363.429688 109.132812 366.691406 106.5 368.585938 C 105.019531 369.695312 103.253906 370.257812 101.488281 370.257812 Z M 74.835938 339.121094 C 76.183594 339.121094 77.566406 339.445312 78.816406 340.101562 L 90.136719 346.0625 L 87.96875 333.453125 C 87.488281 330.6875 88.417969 327.84375 90.425781 325.867188 L 99.578125 316.953125 L 86.941406 315.105469 C 84.164062 314.703125 81.753906 312.9375 80.503906 310.429688 L 74.835938 298.945312 L 69.183594 310.429688 C 67.929688 312.9375 65.523438 314.703125 62.746094 315.105469 L 50.09375 316.953125 L 59.246094 325.867188 C 61.25 327.84375 62.183594 330.65625 61.703125 333.453125 L 59.566406 346.0625 L 70.871094 340.101562 C 72.105469 339.445312 73.46875 339.121094 74.835938 339.121094 Z M 74.835938 339.121094 " fill-opacity="1" fill-rule="nonzero"/><path fill="#ffffff" d="M 214.125 370.257812 C 212.757812 370.257812 211.394531 369.917969 210.140625 369.246094 L 187.46875 357.324219 L 164.816406 369.246094 C 161.941406 370.789062 158.441406 370.53125 155.808594 368.617188 C 153.15625 366.707031 151.839844 363.445312 152.402344 360.25 L 156.722656 334.992188 L 138.386719 317.097656 C 136.042969 314.832031 135.222656 311.441406 136.21875 308.34375 C 137.214844 305.242188 139.894531 302.976562 143.121094 302.511719 L 168.476562 298.832031 L 179.796875 275.859375 C 182.667969 270.027344 192.238281 270.027344 195.128906 275.859375 L 206.480469 298.832031 L 231.800781 302.511719 C 235.03125 302.976562 237.695312 305.242188 238.707031 308.34375 C 239.703125 311.441406 238.867188 314.832031 236.539062 317.097656 L 218.203125 334.992188 L 222.554688 360.25 C 223.097656 363.445312 221.78125 366.707031 219.148438 368.601562 C 217.65625 369.695312 215.890625 370.257812 214.125 370.257812 Z M 187.46875 339.121094 C 188.835938 339.121094 190.199219 339.445312 191.453125 340.101562 L 202.757812 346.0625 L 200.589844 333.453125 C 200.121094 330.6875 201.039062 327.84375 203.046875 325.867188 L 212.195312 316.953125 L 199.5625 315.105469 C 196.78125 314.703125 194.375 312.9375 193.136719 310.429688 L 187.46875 298.945312 L 181.820312 310.429688 C 180.566406 312.9375 178.15625 314.703125 175.378906 315.105469 L 162.726562 316.953125 L 171.863281 325.867188 C 173.871094 327.84375 174.800781 330.65625 174.320312 333.453125 L 172.199219 346.0625 L 183.503906 340.101562 C 184.742188 339.445312 186.105469 339.121094 187.46875 339.121094 Z M 187.46875 339.121094 " fill-opacity="1" fill-rule="nonzero"/><g clip-path="url(#ba2dfc581c)"><path fill="#ffffff" d="M 51.828125 268.292969 C 53.496094 264.902344 56 262.234375 58.859375 259.96875 C 42.867188 235.679688 33.488281 206.699219 33.488281 175.515625 C 33.488281 90.5625 102.566406 21.449219 187.453125 21.449219 C 272.359375 21.449219 341.433594 90.5625 341.433594 175.515625 C 341.433594 206.699219 332.058594 235.726562 316.066406 260.003906 C 318.921875 262.234375 321.429688 264.902344 323.097656 268.292969 L 326.421875 274.976562 C 346.558594 246.925781 358.535156 212.625 358.535156 175.515625 C 358.550781 81.132812 281.800781 4.355469 187.46875 4.355469 C 93.140625 4.355469 16.40625 81.132812 16.40625 175.515625 C 16.40625 212.625 28.398438 246.894531 48.519531 274.976562 Z M 51.828125 268.292969 " fill-opacity="1" fill-rule="nonzero"/></g><path fill="#ffffff" d="M 326.773438 370.257812 C 325.410156 370.257812 324.046875 369.917969 322.792969 369.246094 L 300.121094 357.324219 L 277.464844 369.246094 C 274.59375 370.789062 271.09375 370.53125 268.457031 368.617188 C 265.808594 366.707031 264.492188 363.445312 265.054688 360.25 L 269.375 334.992188 L 251.039062 317.097656 C 248.710938 314.832031 247.875 311.441406 248.871094 308.34375 C 249.882812 305.242188 252.546875 302.976562 255.773438 302.511719 L 281.109375 298.832031 L 292.429688 275.859375 C 295.320312 270.027344 304.890625 270.027344 307.765625 275.859375 L 319.117188 298.832031 L 344.4375 302.511719 C 347.664062 302.976562 350.328125 305.242188 351.339844 308.34375 C 352.351562 311.441406 351.519531 314.832031 349.175781 317.097656 L 330.835938 334.992188 L 335.171875 360.25 C 335.71875 363.445312 334.402344 366.707031 331.769531 368.601562 C 330.308594 369.695312 328.542969 370.257812 326.773438 370.257812 Z M 300.121094 339.121094 C 301.488281 339.121094 302.851562 339.445312 304.105469 340.101562 L 315.421875 346.0625 L 313.253906 333.453125 C 312.773438 330.6875 313.707031 327.84375 315.710938 325.867188 L 324.863281 316.953125 L 312.226562 315.105469 C 309.449219 314.703125 307.042969 312.9375 305.789062 310.429688 L 300.121094 298.945312 L 294.46875 310.429688 C 293.21875 312.9375 290.808594 314.703125 288.03125 315.105469 L 275.378906 316.953125 L 284.53125 325.867188 C 286.539062 327.84375 287.46875 330.65625 286.988281 333.453125 L 284.835938 346.0625 L 296.140625 340.101562 C 297.390625 339.445312 298.742188 339.121094 300.121094 339.121094 Z M 300.121094 339.121094 " fill-opacity="1" fill-rule="nonzero"/><path fill="#ffffff" d="M 297.714844 177.910156 C 297.714844 172.238281 295.402344 167.144531 291.742188 163.195312 C 294.535156 159.464844 296.109375 155.015625 296.109375 150.339844 C 296.089844 138.019531 285.527344 128.027344 272.554688 128.027344 C 272.554688 128.027344 272.554688 128.027344 272.535156 128.027344 L 207.765625 128.042969 C 209.179688 120.605469 210.832031 111.253906 211.136719 107.175781 C 212.40625 89.664062 213.964844 67.878906 196.140625 64.34375 C 179.941406 61.019531 169.648438 69.953125 164.863281 91.605469 C 161.84375 105.261719 154.492188 118.742188 148.695312 127.960938 C 146.847656 123.496094 142.480469 120.363281 137.328125 120.363281 L 104.972656 120.363281 C 98.164062 120.363281 92.65625 125.890625 92.65625 132.703125 L 92.65625 239.34375 C 92.65625 246.152344 98.164062 251.679688 104.972656 251.679688 L 137.34375 251.679688 C 143.910156 251.679688 149.144531 246.507812 149.511719 240.066406 C 156.851562 247.40625 168.394531 255.3125 184.773438 255.3125 L 256.367188 255.3125 C 269.339844 255.3125 279.921875 245.300781 279.9375 232.964844 C 279.9375 229.382812 278.945312 226.054688 277.355469 223.050781 C 282.941406 218.972656 286.585938 212.625 286.585938 205.429688 C 286.585938 202.699219 286.074219 200.078125 285.109375 197.652344 C 292.589844 193.910156 297.714844 186.457031 297.714844 177.910156 Z M 121.140625 232.996094 C 115.28125 232.996094 110.542969 228.226562 110.542969 222.394531 C 110.542969 216.53125 115.28125 211.757812 121.140625 211.757812 C 127.003906 211.757812 131.738281 216.53125 131.738281 222.394531 C 131.753906 228.226562 127.003906 232.996094 121.140625 232.996094 Z M 274.125 183.113281 L 263.015625 183.113281 L 253.140625 183.144531 C 248.421875 183.144531 244.597656 186.96875 244.613281 191.710938 C 244.613281 196.417969 248.453125 200.238281 253.15625 200.238281 L 253.171875 200.238281 L 263.015625 200.222656 C 266.515625 200.238281 269.484375 202.617188 269.484375 205.414062 C 269.484375 208.304688 266.597656 210.648438 263.03125 210.648438 L 256.433594 210.648438 C 256.417969 210.648438 256.398438 210.648438 256.367188 210.648438 L 248.164062 210.648438 C 243.441406 210.648438 239.621094 214.472656 239.605469 219.179688 C 239.605469 223.917969 243.425781 227.742188 248.148438 227.742188 L 256.382812 227.742188 C 259.867188 227.773438 262.808594 230.152344 262.824219 232.949219 C 262.824219 235.777344 259.851562 238.183594 256.351562 238.183594 L 184.757812 238.183594 C 168.460938 238.183594 158.96875 225.816406 156.0625 221.367188 L 156.0625 147.625 C 161.378906 140.414062 176.457031 118.484375 181.5625 95.316406 C 185.0625 79.542969 189.171875 80.378906 193.21875 81.035156 C 193.957031 81.984375 195.5 86.335938 194.085938 105.953125 C 193.765625 110.308594 190.792969 126.003906 188.996094 134.902344 C 188.480469 137.425781 189.125 140.027344 190.761719 142.003906 C 192.382812 143.996094 194.808594 145.136719 197.378906 145.136719 L 272.535156 145.136719 C 276.039062 145.136719 278.992188 147.515625 278.992188 150.339844 C 278.992188 151.851562 278.203125 152.945312 277.546875 153.601562 C 276.308594 154.824219 274.511719 155.546875 272.535156 155.546875 C 272.535156 155.546875 272.519531 155.546875 272.519531 155.546875 L 258.085938 155.546875 C 253.367188 155.546875 249.527344 159.371094 249.527344 164.078125 C 249.527344 168.816406 253.347656 172.640625 258.070312 172.640625 L 274.125 172.65625 C 277.625 172.65625 280.582031 175.050781 280.582031 177.859375 C 280.613281 180.753906 277.707031 183.113281 274.125 183.113281 Z M 274.125 183.113281 " fill-opacity="1" fill-rule="nonzero"/></svg>